      <svg width="50px" height="50px" viewBox="0 0 12700 12700">
        <path
          fill="#81AC4C"
          d="M1936.69 140.83l8826.62 0c493.96,0 942.97,202.02 1268.41,527.45 325.43,325.44 527.45,774.45 527.45,1268.41l0 8826.62c0,493.96 -202.02,942.97 -527.45,1268.41 -325.44,325.43 -774.45,527.45 -1268.41,527.45l-8826.62 0c-493.96,0 -942.97,-202.02 -1268.41,-527.45 -325.43,-325.44 -527.45,-774.45 -527.45,-1268.41l0 -8826.62c0,-493.96 202.02,-942.97 527.45,-1268.41 325.44,-325.43 774.45,-527.45 1268.41,-527.45zm4751.57 6417.55l-179.31 -761.79 -203.13 -866.95c-48.4,-202.28 -252.36,-327.57 -454.73,-279.06l-3873.02 927.35c-97.98,23.46 -180.98,83.71 -233.69,169.59 -52.71,85.88 -68.82,187.13 -45.35,285.15l1087.68 4516.01c23.49,98.01 83.71,180.97 169.58,233.69 85.92,52.68 187.18,68.84 285.12,45.37l3873.06 -927.37 171.24 715.28 -3873.01 927.36c-86.67,20.73 -174.23,31 -261.18,31 -202.95,0 -402.54,-55.92 -579.92,-164.78 -253.32,-155.43 -430.95,-400.24 -500.16,-689.33l-1087.69 -4515.97c-142.88,-596.69 226.33,-1198.4 823.06,-1341.28l3873.03 -927.36c596.61,-142.76 1198.41,226.36 1341.27,823.07l213.84 908.4 168.36 719.24 143.22 613.48 381.07 1665.58 573.21 -2135.49c42.64,-163.5 80.85,-287.94 114.64,-373.25 33.73,-85.31 88.85,-159.05 165.26,-221.29 76.4,-62.18 180.39,-93.3 311.96,-93.3 133.28,0 236.81,32.45 310.58,97.31 73.72,64.9 124.84,135.55 153.31,211.95 28.4,76.43 66.62,202.61 114.63,378.58l578.54 2135.49 511.87 -2282.12c24.84,-119.06 48.41,-212.36 70.64,-279.93 22.19,-67.54 60.41,-127.99 114.63,-181.29 54.2,-53.34 132.84,-79.99 235.95,-79.99 103.03,0 190.64,34.24 262.6,102.66 71.97,68.42 107.95,154.2 107.95,257.25 0,72.89 -19.57,189.29 -58.65,349.27l-650.48 2631.33c-44.47,177.75 -81.32,307.92 -110.66,390.6 -29.3,82.65 -79.08,155.07 -149.29,217.27 -70.24,62.18 -169.3,93.32 -297.26,93.32 -120.89,0 -217.72,-30.23 -290.6,-90.66 -72.9,-60.41 -123.55,-128.38 -151.95,-203.95 -28.45,-75.53 -68.45,-204.81 -119.99,-387.89l-631.82 -2343.43 -639.87 2343.43c-49.78,177.72 -89.33,305.25 -118.62,382.54 -29.35,77.33 -80.45,146.64 -153.32,207.98 -72.86,61.31 -169.72,91.98 -290.57,91.98 -97.8,0 -178.21,-18.25 -241.28,-54.66 -63.13,-36.42 -114.22,-88 -153.3,-154.65 -39.11,-66.62 -71.11,-145.71 -95.96,-237.25 -24.93,-91.54 -47.13,-176.4 -66.66,-254.63l-502.84 -2015.55 -141.99 -608.31zm-534.58 2085.34c0,236.38 -60.91,448.81 -182.61,637.18 -121.79,188.42 -299.94,335.9 -534.55,442.56 -234.6,106.63 -512.79,159.97 -834.47,159.97 -385.69,0 -703.83,-72.88 -954.43,-218.62 -177.74,-104.85 -322.18,-244.81 -433.22,-419.89 -111.09,-175.04 -166.64,-345.27 -166.64,-510.56 0,-95.99 33.32,-178.16 99.98,-246.61 66.66,-68.41 151.51,-102.64 254.61,-102.64 83.51,0 154.15,26.65 211.94,79.98 57.73,53.33 107.06,132.42 147.97,237.29 49.73,124.43 103.51,228.4 161.28,311.91 57.75,83.56 139.05,152.42 243.94,206.63 104.86,54.23 242.62,81.33 413.24,81.33 234.62,0 425.23,-54.68 571.86,-163.99 146.64,-109.29 219.95,-245.7 219.95,-409.23 0,-129.74 -39.57,-235.03 -118.64,-315.94 -79.11,-80.84 -181.28,-142.62 -306.58,-185.28 -125.31,-42.66 -292.85,-87.98 -502.57,-135.98 -280.83,-65.72 -515.85,-142.63 -705.15,-230.59 -189.27,-87.96 -339.49,-207.96 -450.55,-359.92 -111.1,-151.95 -166.63,-340.79 -166.63,-566.52 0,-215.03 58.67,-406.12 175.96,-573.19 117.31,-167.05 287.02,-295.47 509.2,-385.25 222.16,-89.73 483.44,-134.63 783.81,-134.63 239.95,0 447.46,29.79 622.53,89.3 175.05,59.59 320.35,138.65 435.9,237.28 115.52,98.66 199.96,202.21 253.26,310.61 53.34,108.41 79.98,214.2 79.98,317.26 0,94.22 -33.31,179.07 -99.96,254.6 -66.65,75.57 -149.77,113.3 -249.28,113.3 -90.64,0 -159.55,-22.66 -206.62,-67.99 -47.11,-45.31 -98.22,-119.5 -153.3,-222.62 -71.11,-147.49 -156.42,-262.6 -255.94,-345.23 -99.56,-82.64 -259.52,-123.97 -479.87,-123.97 -204.42,0 -369.24,44.9 -494.55,134.64 -125.3,89.75 -187.95,197.73 -187.95,323.92 0,78.22 21.31,145.75 63.97,202.62 42.67,56.89 101.31,105.75 175.97,146.62 74.65,40.89 150.15,72.91 226.61,95.98 76.39,23.13 202.6,56.9 378.57,101.31 220.35,51.56 419.89,108.42 598.52,170.63 178.62,62.23 330.6,137.76 455.88,226.61 125.31,88.87 223.05,201.28 293.27,337.25 70.2,135.97 105.31,302.57 105.31,499.87zm-5181.31 -4213.93l19.47 81.9c63.07,265.28 285.53,283.32 508.81,231.68 281.82,-65.17 419.01,-219 350.43,-507.43 -106.65,-448.67 -636.73,-185.19 -699.8,-450.47 -22.01,-92.58 13.16,-147.68 90.02,-165.46 45.75,-10.58 78.42,-3.1 103.92,22.93 25.06,24.25 42.98,67.07 57.37,127.6l296.47 -68.57 -7.2 -30.26c-46.56,-195.84 -192.35,-321.78 -499.8,-250.68 -316.6,73.23 -387.59,269.97 -339.34,472.94 113.01,475.37 638.45,192.3 703.62,466.49 17.36,73 4.87,158.54 -103.1,183.51 -106.15,24.55 -150.96,-42.09 -173.82,-138.24l-10.58 -44.51 -296.47 68.57zm1122.61 149.83l307.45 -71.12 -302.22 -1271.21 -307.45 71.1 302.22 1271.23zm1142.05 -1197.68c-34.28,-144.22 -114.25,-407.46 -511.37,-315.62 -435.56,100.75 -400.5,378.15 -301.45,794.76 94.38,397.04 205.58,621.14 533.16,545.37 118.96,-27.52 226.63,-86.22 247.13,-211.18l3.65 -0.85 36.1 119.38 210.46 -48.68 -162.1 -681.9 -430.07 99.47 47.4 199.4 144.58 -33.44 9.73 40.96c41.49,174.48 26.89,275.53 -77.43,299.66 -122.6,28.36 -167.57,-79.58 -250.1,-426.76 -80.43,-338.28 -95.42,-466.31 30.85,-495.51 113.47,-26.24 153.52,101.62 172.99,183.52l296.47 -68.58zm378.72 845.93l274.52 -63.49 -208.25 -875.97 3.65 -0.84 477.27 813.75 347.71 -80.42 -302.21 -1271.23 -285.49 66.03 196.41 826.12 -3.67 0.86 -448.95 -767.72 -353.2 81.7 302.21 1271.21zm1512.52 -849.45l-223.28 51.64 -26.63 -591.15 3.66 -0.85 246.25 540.36zm-518.79 619.62l318.43 -73.65 -11.82 -252.72 312.94 -72.38 105.14 231.14 318.44 -73.65 -627.97 -1195.88 -384.32 88.89 -30.84 1348.25zm1747.79 -1337.77c-34.28,-144.22 -114.25,-407.47 -511.37,-315.62 -435.56,100.74 -400.5,378.13 -301.45,794.76 94.38,397.02 205.58,621.13 533.16,545.36 118.96,-27.51 226.63,-86.23 247.13,-211.19l3.65 -0.84 36.1 119.38 210.47 -48.68 -162.11 -681.9 -430.06 99.47 47.39 199.41 144.58 -33.44 9.73 40.95c41.49,174.49 26.89,275.53 -77.42,299.66 -122.61,28.36 -167.58,-79.59 -250.11,-426.76 -80.43,-338.28 -95.42,-466.3 30.85,-495.51 113.47,-26.24 153.52,101.63 172.99,183.52l296.47 -68.57zm378.72 845.93l775.95 -179.47 -57.57 -242.14 -468.49 108.37 -69 -290.23 420.91 -97.34 -57.56 -242.14 -420.9 97.35 -60.53 -254.61 448.36 -103.69 -57.57 -242.14 -755.81 174.81 302.21 1271.23zm4027.32 -3168.87l-8826.62 0c-439.72,0 -839.55,179.96 -1129.48,469.88 -289.92,289.93 -469.88,689.76 -469.88,1129.48l0 8826.62c0,439.72 179.96,839.55 469.88,1129.48 289.93,289.92 689.76,469.88 1129.48,469.88l8826.62 0c439.72,0 839.55,-179.96 1129.48,-469.88 289.92,-289.93 469.88,-689.76 469.88,-1129.48l0 -8826.62c0,-439.72 -179.96,-839.55 -469.88,-1129.48 -289.93,-289.92 -689.76,-469.88 -1129.48,-469.88z"
        />
        <path
          fill="#547333"
          d="M3073.58 9883.43c32.81,138.02 117.41,255.02 238.22,329.43 120.81,74.43 263.41,97.3 401.4,64.48l70.51 296.6c-448.56,106.68 -900.1,-171.53 -1006.74,-620.02l296.61 -70.49zm7606.79 -5903.6l274.5 -63.5 -235.34 -989.91 3.67 -0.85 445.79 941.24 237.91 -55.03 -35.87 -1036.04 3.67 -0.85 235.33 989.91 285.49 -66.03 -302.22 -1271.22 -444.7 102.86 42.97 870.99 -3.67 0.85 -359.56 -797.78 -450.19 104.13 302.22 1271.23zm-921.56 -457.42c-82.96,-348.96 -91.33,-465.36 29.45,-493.3 124.45,-28.78 169.42,79.15 252.39,428.11 82.96,348.97 91.33,465.37 -33.12,494.16 -120.78,27.93 -165.75,-80.02 -248.72,-428.97zm600.26 -138.84c-83.81,-352.52 -180.83,-655.03 -616.39,-554.29 -404.44,93.55 -398.39,362.63 -302.3,766.78 96.08,404.15 211.93,647.84 616.37,554.3 435.56,-100.75 386.13,-414.26 302.32,-766.79zm-1074.63 43.82l-12.7 -53.41c-71.11,-299.12 -246.44,-378.78 -517.29,-316.13 -435.55,100.74 -376.39,430.79 -298.93,756.6 91,382.79 190.25,662.25 583.72,571.24 380.65,-88.04 410.68,-310.98 345.5,-585.17l-10.59 -44.51 -296.46 68.57c45.14,198.05 62.39,327.43 -51.08,353.67 -128.1,29.63 -164.19,-65.33 -253.93,-442.78 -79.15,-332.94 -95.26,-449.44 27.35,-477.8 102.48,-23.7 143.92,53.13 187.94,238.29l296.47 -68.57zm-1122.23 1134.86l285.49 -66.03 -76.18 -320.48 -285.49 66.04 76.18 320.47zm-364.78 -1301.55l340.39 -78.73 -88.33 -931.88 3.67 -0.85 348.19 871.78 340.39 -78.73 -75.29 -1323.71 -296.47 68.57 105.21 929.85 -3.65 0.85 -361.43 -870.6 -285.49 66.04 79.6 935.77 -3.67 0.85 -328.48 -878.21 -307.44 71.1 532.8 1217.9zm1636.95 -878.24l-223.27 51.64 -26.63 -591.15 3.66 -0.84 246.24 540.35zm-518.78 619.61l318.42 -73.64 -11.82 -252.71 312.95 -72.38 105.14 231.12 318.44 -73.65 -627.97 -1195.88 -384.32 88.89 -30.84 1348.25zm1141.94 -264.12l752.15 -173.96 -57.56 -242.13 -444.7 102.85 -244.65 -1029.08 -307.45 71.11 302.21 1271.21zm1274.6 -794.43l-223.27 51.64 -26.63 -591.15 3.66 -0.84 246.24 540.35zm-518.78 619.63l318.42 -73.66 -11.81 -252.71 312.94 -72.38 105.14 231.12 318.44 -73.64 -627.97 -1195.88 -384.32 88.88 -30.84 1348.27zm-4807.14 3041.47c-32.81,-138.02 -117.44,-255.02 -238.22,-329.43 -120.83,-74.43 -263.41,-97.3 -401.41,-64.48l-70.5 -296.61c448.56,-106.68 900.1,171.54 1006.71,620.01l-296.58 70.51z"
        />
      </svg>
